<svg width="13" height="23" viewBox="0 0 13 23" fill="none" xmlns="http://www.w3.org/2000/svg">
<path d="M11.7842 11.2368L11.7841 10.2368L11.5898 10.2368L11.4095 10.3096L11.7842 11.2368ZM11.8848 12.2368C12.4371 12.2368 12.8848 11.789 12.8847 11.2368C12.8847 10.6845 12.437 10.2368 11.8847 10.2368L11.8848 12.2368ZM2.88474 1.2368V0.236801H0.884745V1.2368H2.88474ZM11.3054 12.0142C11.7903 12.2787 12.3977 12.1 12.6621 11.6151C12.9266 11.1303 12.7479 10.5228 12.2631 10.2584L11.3054 12.0142ZM0.884664 21.1363V22.1363H2.88466V21.1363H0.884664ZM11.7842 12.2368L11.8848 12.2368L11.8847 10.2368L11.7841 10.2368L11.7842 12.2368ZM0.884745 1.2368C0.884745 2.70921 1.68002 4.11553 2.6563 5.3137C3.65253 6.53636 4.95639 7.68657 6.22305 8.66534C7.4956 9.64866 8.76319 10.4838 9.70977 11.0718C10.184 11.3664 10.5799 11.6003 10.8585 11.7613C10.9979 11.8418 11.108 11.9042 11.1841 11.9468C11.2221 11.9682 11.2516 11.9846 11.2721 11.9959C11.2823 12.0015 11.2902 12.0059 11.2958 12.0089C11.2986 12.0105 11.3008 12.0117 11.3024 12.0126C11.3032 12.013 11.3038 12.0134 11.3043 12.0136C11.3046 12.0138 11.3049 12.0139 11.305 12.014C11.3052 12.0141 11.3054 12.0142 11.7842 11.1363C12.2631 10.2584 12.2632 10.2585 12.2633 10.2585C12.2632 10.2585 12.2633 10.2585 12.2632 10.2585C12.2631 10.2584 12.2629 10.2583 12.2625 10.2581C12.2617 10.2576 12.2603 10.2569 12.2583 10.2558C12.2544 10.2536 12.2481 10.2502 12.2396 10.2455C12.2226 10.2361 12.1965 10.2216 12.1621 10.2023C12.0931 10.1636 11.9906 10.1056 11.8592 10.0297C11.5964 9.87782 11.219 9.65479 10.7651 9.37286C9.85554 8.80784 8.64826 8.01181 7.44593 7.08276C6.23772 6.14915 5.0667 5.10574 4.20678 4.05037C3.3269 2.97051 2.88474 2.01439 2.88474 1.2368H0.884745ZM11.7842 11.2368C11.4095 10.3096 11.4093 10.3097 11.409 10.3099C11.4088 10.3099 11.4085 10.3101 11.4082 10.3102C11.4075 10.3104 11.4068 10.3107 11.4059 10.3111C11.404 10.3119 11.4016 10.3128 11.3986 10.3141C11.3926 10.3165 11.3842 10.32 11.3735 10.3244C11.3522 10.3332 11.3217 10.3459 11.2827 10.3625C11.2047 10.3955 11.0925 10.4439 10.951 10.5071C10.6681 10.6335 10.2673 10.8194 9.78774 11.0608C8.83108 11.5423 7.54866 12.251 6.25984 13.1558C4.97619 14.0569 3.65126 15.1768 2.6393 16.4903C1.62623 17.8053 0.884664 19.371 0.884664 21.1363H2.88466C2.88466 19.9518 3.38054 18.8053 4.22362 17.711C5.06782 16.6152 6.21777 15.629 7.40899 14.7927C8.59505 13.96 9.7875 13.3 10.687 12.8472C11.1355 12.6214 11.5081 12.4487 11.7666 12.3333C11.8958 12.2756 11.9963 12.2323 12.0633 12.2039C12.0968 12.1897 12.1219 12.1792 12.138 12.1725C12.1461 12.1692 12.1519 12.1668 12.1554 12.1654C12.1571 12.1647 12.1583 12.1642 12.1589 12.164C12.1592 12.1638 12.1593 12.1638 12.1593 12.1638C12.1593 12.1638 12.1592 12.1638 12.1592 12.1638C12.159 12.1639 12.1588 12.164 11.7842 11.2368Z" fill="white"/>
</svg>
