<svg width="1440" height="1004" viewBox="0 0 1440 1004" fill="none" xmlns="http://www.w3.org/2000/svg">
<g clip-path="url(#clip0_2_1836)">
<rect width="1440" height="1004" fill="url(#paint0_linear_2_1836)"/>
<path d="M53.172 59.3528L52.7284 60.026L53.0565 60.7623L52.3834 60.3188L51.647 60.6468L52.0906 59.9737L51.7625 59.2373L52.4356 59.6809L53.172 59.3528Z" fill="white"/>
<path d="M244.581 116.762L244.138 117.436L244.466 118.172L243.793 117.728L243.056 118.056L243.5 117.383L243.172 116.647L243.845 117.091L244.581 116.762Z" fill="white"/>
<path d="M127.581 182.762L127.138 183.436L127.466 184.172L126.793 183.728L126.056 184.056L126.5 183.383L126.172 182.647L126.845 183.091L127.581 182.762Z" fill="white"/>
<path d="M145.581 77.7625L145.138 78.4356L145.466 79.172L144.793 78.7284L144.056 79.0565L144.5 78.3834L144.172 77.647L144.845 78.0906L145.581 77.7625Z" fill="white"/>
<path d="M90.5815 102.762L90.1379 103.436L90.466 104.172L89.7928 103.728L89.0565 104.056L89.5 103.383L89.172 102.647L89.8451 103.091L90.5815 102.762Z" fill="white"/>
<path d="M438.581 165.762L438.138 166.436L438.466 167.172L437.793 166.728L437.056 167.056L437.5 166.383L437.172 165.647L437.845 166.091L438.581 165.762Z" fill="white"/>
<path d="M263.581 61.7625L263.138 62.4356L263.466 63.172L262.793 62.7284L262.056 63.0565L262.5 62.3834L262.172 61.647L262.845 62.0906L263.581 61.7625Z" fill="white"/>
<path d="M687.581 119.762L687.138 120.436L687.466 121.172L686.793 120.728L686.056 121.056L686.5 120.383L686.172 119.647L686.845 120.091L687.581 119.762Z" fill="white"/>
<path d="M455.581 283.762L455.138 284.436L455.466 285.172L454.793 284.728L454.056 285.056L454.5 284.383L454.172 283.647L454.845 284.091L455.581 283.762Z" fill="white"/>
<path d="M262.581 204.762L262.138 205.436L262.466 206.172L261.793 205.728L261.056 206.056L261.5 205.383L261.172 204.647L261.845 205.091L262.581 204.762Z" fill="white"/>
<path d="M254.581 359.762L254.138 360.436L254.466 361.172L253.793 360.728L253.056 361.056L253.5 360.383L253.172 359.647L253.845 360.091L254.581 359.762Z" fill="white"/>
<path d="M852.581 345.762L852.138 346.436L852.466 347.172L851.793 346.728L851.056 347.056L851.5 346.383L851.172 345.647L851.845 346.091L852.581 345.762Z" fill="white"/>
<path d="M1045.58 148.762L1045.14 149.436L1045.47 150.172L1044.79 149.728L1044.06 150.056L1044.5 149.383L1044.17 148.647L1044.85 149.091L1045.58 148.762Z" fill="white"/>
<path d="M1320.58 324.762L1320.14 325.436L1320.47 326.172L1319.79 325.728L1319.06 326.056L1319.5 325.383L1319.17 324.647L1319.85 325.091L1320.58 324.762Z" fill="white"/>
<path d="M1194.58 638.762L1194.14 639.436L1194.47 640.172L1193.79 639.728L1193.06 640.056L1193.5 639.383L1193.17 638.647L1193.85 639.091L1194.58 638.762Z" fill="white"/>
<path d="M1323.58 838.762L1323.14 839.436L1323.47 840.172L1322.79 839.728L1322.06 840.056L1322.5 839.383L1322.17 838.647L1322.85 839.091L1323.58 838.762Z" fill="white"/>
<path d="M1014.58 873.762L1014.14 874.436L1014.47 875.172L1013.79 874.728L1013.06 875.056L1013.5 874.383L1013.17 873.647L1013.85 874.091L1014.58 873.762Z" fill="white"/>
<path d="M658.581 835.762L658.138 836.436L658.466 837.172L657.793 836.728L657.056 837.056L657.5 836.383L657.172 835.647L657.845 836.091L658.581 835.762Z" fill="white"/>
<path d="M834.581 456.762L834.138 457.436L834.466 458.172L833.793 457.728L833.056 458.056L833.5 457.383L833.172 456.647L833.845 457.091L834.581 456.762Z" fill="white"/>
<path d="M562.581 377.762L562.138 378.436L562.466 379.172L561.793 378.728L561.056 379.056L561.5 378.383L561.172 377.647L561.845 378.091L562.581 377.762Z" fill="white"/>
<path d="M353.581 755.762L353.138 756.436L353.466 757.172L352.793 756.728L352.056 757.056L352.5 756.383L352.172 755.647L352.845 756.091L353.581 755.762Z" fill="white"/>
<path d="M110.581 641.762L110.138 642.436L110.466 643.172L109.793 642.728L109.056 643.056L109.5 642.383L109.172 641.647L109.845 642.091L110.581 641.762Z" fill="white"/>
<path d="M113.581 294.762L113.138 295.436L113.466 296.172L112.793 295.728L112.056 296.056L112.5 295.383L112.172 294.647L112.845 295.091L113.581 294.762Z" fill="white"/>
<path d="M435.581 327.762L435.138 328.436L435.466 329.172L434.793 328.728L434.056 329.056L434.5 328.383L434.172 327.647L434.845 328.091L435.581 327.762Z" fill="white"/>
<path d="M1002.58 330.762L1002.14 331.436L1002.47 332.172L1001.79 331.728L1001.06 332.056L1001.5 331.383L1001.17 330.647L1001.85 331.091L1002.58 330.762Z" fill="white"/>
<path d="M893.581 565.762L893.138 566.436L893.466 567.172L892.793 566.728L892.056 567.056L892.5 566.383L892.172 565.647L892.845 566.091L893.581 565.762Z" fill="white"/>
<path d="M760.581 688.762L760.138 689.436L760.466 690.172L759.793 689.728L759.056 690.056L759.5 689.383L759.172 688.647L759.845 689.091L760.581 688.762Z" fill="white"/>
<path d="M576.581 410.762L576.138 411.436L576.466 412.172L575.793 411.728L575.056 412.056L575.5 411.383L575.172 410.647L575.845 411.091L576.581 410.762Z" fill="white"/>
<path d="M793.581 229.762L793.138 230.436L793.466 231.172L792.793 230.728L792.056 231.056L792.5 230.383L792.172 229.647L792.845 230.091L793.581 229.762Z" fill="white"/>
<path d="M148.581 744.762L148.138 745.436L148.466 746.172L147.793 745.728L147.056 746.056L147.5 745.383L147.172 744.647L147.845 745.091L148.581 744.762Z" fill="white"/>
<path d="M124.581 442.762L124.138 443.436L124.466 444.172L123.793 443.728L123.056 444.056L123.5 443.383L123.172 442.647L123.845 443.091L124.581 442.762Z" fill="white"/>
<path d="M675.581 431.762L675.138 432.436L675.466 433.172L674.793 432.728L674.056 433.056L674.5 432.383L674.172 431.647L674.845 432.091L675.581 431.762Z" fill="white"/>
<path d="M896.581 856.762L896.138 857.436L896.466 858.172L895.793 857.728L895.056 858.056L895.5 857.383L895.172 856.647L895.845 857.091L896.581 856.762Z" fill="white"/>
<path d="M518.581 944.762L518.138 945.436L518.466 946.172L517.793 945.728L517.056 946.056L517.5 945.383L517.172 944.647L517.845 945.091L518.581 944.762Z" fill="white"/>
<path d="M515.581 575.762L515.138 576.436L515.466 577.172L514.793 576.728L514.056 577.056L514.5 576.383L514.172 575.647L514.845 576.091L515.581 575.762Z" fill="white"/>
<path d="M1291.58 122.762L1291.14 123.436L1291.47 124.172L1290.79 123.728L1290.06 124.056L1290.5 123.383L1290.17 122.647L1290.85 123.091L1291.58 122.762Z" fill="white"/>
<path d="M1376.58 80.7625L1376.14 81.4356L1376.47 82.172L1375.79 81.7284L1375.06 82.0565L1375.5 81.3834L1375.17 80.647L1375.85 81.0906L1376.58 80.7625Z" fill="white"/>
<path d="M1387.58 870.762L1387.14 871.436L1387.47 872.172L1386.79 871.728L1386.06 872.056L1386.5 871.383L1386.17 870.647L1386.85 871.091L1387.58 870.762Z" fill="white"/>
<path d="M1181.58 991.762L1181.14 992.436L1181.47 993.172L1180.79 992.728L1180.06 993.056L1180.5 992.383L1180.17 991.647L1180.85 992.091L1181.58 991.762Z" fill="white"/>
<path d="M1046.58 560.762L1046.14 561.436L1046.47 562.172L1045.79 561.728L1045.06 562.056L1045.5 561.383L1045.17 560.647L1045.85 561.091L1046.58 560.762Z" fill="white"/>
<path d="M622.228 644.525L621.341 645.871L621.998 647.344L620.651 646.457L619.179 647.113L620.066 645.767L619.409 644.294L620.756 645.181L622.228 644.525Z" fill="white"/>
<path d="M374.753 474.525L373.866 475.871L374.522 477.344L373.176 476.457L371.703 477.113L372.591 475.767L371.934 474.294L373.281 475.181L374.753 474.525Z" fill="white"/>
<path d="M972.753 186.525L971.866 187.871L972.522 189.344L971.176 188.457L969.703 189.113L970.591 187.767L969.934 186.294L971.281 187.181L972.753 186.525Z" fill="white"/>
<path d="M739.753 60.525L738.866 61.8712L739.522 63.3439L738.176 62.4568L736.703 63.113L737.591 61.7667L736.934 60.294L738.281 61.1811L739.753 60.525Z" fill="white"/>
<path d="M521.753 63.525L520.866 64.8712L521.522 66.3439L520.176 65.4568L518.703 66.113L519.591 64.7667L518.934 63.294L520.281 64.1811L521.753 63.525Z" fill="white"/>
<path d="M1149.75 31.525L1148.87 32.8712L1149.52 34.3439L1148.18 33.4568L1146.7 34.113L1147.59 32.7667L1146.93 31.294L1148.28 32.1811L1149.75 31.525Z" fill="white"/>
<path d="M947.753 647.525L946.866 648.871L947.522 650.344L946.176 649.457L944.703 650.113L945.591 648.767L944.934 647.294L946.281 648.181L947.753 647.525Z" fill="white"/>
<path d="M249.753 623.525L248.866 624.871L249.522 626.344L248.176 625.457L246.703 626.113L247.591 624.767L246.934 623.294L248.281 624.181L249.753 623.525Z" fill="white"/>
<path d="M216.753 939.525L215.866 940.871L216.522 942.344L215.176 941.457L213.703 942.113L214.591 940.767L213.934 939.294L215.281 940.181L216.753 939.525Z" fill="white"/>
<path d="M106.753 564.525L105.866 565.871L106.522 567.344L105.176 566.457L103.703 567.113L104.591 565.767L103.934 564.294L105.281 565.181L106.753 564.525Z" fill="white"/>
<path d="M95.7534 877.525L94.8663 878.871L95.5225 880.344L94.1762 879.457L92.7035 880.113L93.5906 878.767L92.9344 877.294L94.2807 878.181L95.7534 877.525Z" fill="white"/>
<path d="M57.7534 331.525L56.8663 332.871L57.5225 334.344L56.1762 333.457L54.7035 334.113L55.5906 332.767L54.9344 331.294L56.2807 332.181L57.7534 331.525Z" fill="white"/>
<path d="M784.4 95.1358L783.611 95.2982L783.322 96.0508L783.16 95.2612L782.407 94.9725L783.197 94.8102L783.485 94.0575L783.648 94.8471L784.4 95.1358Z" fill="white"/>
<path d="M992.997 238.678L992.207 238.841L991.919 239.593L991.756 238.804L991.004 238.515L991.793 238.353L992.082 237.6L992.244 238.39L992.997 238.678Z" fill="white"/>
<path d="M712.983 190.595L712.193 190.758L711.904 191.51L711.742 190.721L710.989 190.432L711.779 190.27L712.068 189.517L712.23 190.307L712.983 190.595Z" fill="white"/>
<path d="M517.114 102.207L516.325 102.369L516.036 103.122L515.873 102.332L515.121 102.043L515.91 101.881L516.199 101.128L516.361 101.918L517.114 102.207Z" fill="white"/>
<path d="M949.863 515.157L949.074 515.32L948.785 516.072L948.623 515.283L947.87 514.994L948.66 514.832L948.948 514.079L949.111 514.869L949.863 515.157Z" fill="white"/>
<path d="M1225.64 512.329L1224.85 512.491L1224.56 513.244L1224.39 512.454L1223.64 512.165L1224.43 512.003L1224.72 511.25L1224.88 512.04L1225.64 512.329Z" fill="white"/>
<path d="M1295.64 831.234L1294.85 831.396L1294.56 832.149L1294.4 831.359L1293.65 831.071L1294.43 830.908L1294.72 830.156L1294.89 830.945L1295.64 831.234Z" fill="white"/>
<path d="M984.512 964.17L983.722 964.332L983.433 965.085L983.271 964.295L982.518 964.007L983.308 963.844L983.597 963.092L983.759 963.881L984.512 964.17Z" fill="white"/>
<path d="M691.062 1003.06L690.273 1003.22L689.984 1003.98L689.822 1003.19L689.069 1002.9L689.859 1002.73L690.147 1001.98L690.31 1002.77L691.062 1003.06Z" fill="white"/>
<path d="M466.202 724.461L465.413 724.623L465.124 725.376L464.962 724.586L464.209 724.297L464.999 724.135L465.287 723.382L465.45 724.172L466.202 724.461Z" fill="white"/>
<path d="M858.647 580.918L857.857 581.08L857.568 581.833L857.406 581.043L856.653 580.755L857.443 580.592L857.732 579.84L857.894 580.629L858.647 580.918Z" fill="white"/>
<path d="M722.175 332.724L721.385 332.886L721.097 333.639L720.934 332.849L720.182 332.56L720.971 332.398L721.26 331.645L721.422 332.435L722.175 332.724Z" fill="white"/>
<path d="M307.103 452.225L306.314 452.387L306.025 453.14L305.863 452.35L305.11 452.061L305.9 451.899L306.188 451.146L306.351 451.936L307.103 452.225Z" fill="white"/>
<path d="M215.887 199.788L215.097 199.95L214.808 200.703L214.646 199.913L213.893 199.624L214.683 199.462L214.972 198.709L215.134 199.499L215.887 199.788Z" fill="white"/>
<path d="M667.728 207.566L666.938 207.728L666.65 208.481L666.487 207.691L665.735 207.402L666.524 207.24L666.813 206.487L666.975 207.277L667.728 207.566Z" fill="white"/>
<path d="M1066.54 610.617L1065.75 610.779L1065.46 611.532L1065.3 610.742L1064.54 610.453L1065.33 610.291L1065.62 609.538L1065.78 610.328L1066.54 610.617Z" fill="white"/>
<path d="M823.291 699.712L822.502 699.874L822.213 700.627L822.051 699.837L821.298 699.549L822.088 699.386L822.376 698.634L822.539 699.423L823.291 699.712Z" fill="white"/>
<path d="M642.272 692.641L641.482 692.803L641.194 693.556L641.031 692.766L640.279 692.477L641.068 692.315L641.357 691.562L641.519 692.352L642.272 692.641Z" fill="white"/>
<path d="M708.74 365.958L707.95 366.12L707.662 366.873L707.499 366.083L706.747 365.794L707.536 365.632L707.825 364.879L707.987 365.669L708.74 365.958Z" fill="white"/>
<path d="M990.169 391.414L989.379 391.576L989.09 392.329L988.928 391.539L988.175 391.25L988.965 391.088L989.254 390.335L989.416 391.125L990.169 391.414Z" fill="white"/>
<path d="M169.925 299.49L169.135 299.652L168.846 300.405L168.684 299.615L167.931 299.327L168.721 299.164L169.01 298.412L169.172 299.201L169.925 299.49Z" fill="white"/>
<path d="M366.5 68.9727L365.711 69.1351L365.422 69.8877L365.26 69.0981L364.507 68.8094L365.297 68.6471L365.585 67.8944L365.748 68.684L366.5 68.9727Z" fill="white"/>
<path d="M763.894 450.811L763.105 450.973L762.816 451.726L762.654 450.936L761.901 450.647L762.691 450.485L762.979 449.732L763.142 450.522L763.894 450.811Z" fill="white"/>
<path d="M619.645 907.602L618.855 907.764L618.566 908.517L618.404 907.727L617.651 907.438L618.441 907.276L618.73 906.523L618.892 907.313L619.645 907.602Z" fill="white"/>
<path d="M290.133 702.541L289.343 702.703L289.055 703.456L288.892 702.666L288.14 702.377L288.929 702.215L289.218 701.462L289.38 702.252L290.133 702.541Z" fill="white"/>
<path d="M548.934 439.497L548.144 439.659L547.856 440.412L547.693 439.622L546.941 439.333L547.73 439.171L548.019 438.418L548.181 439.208L548.934 439.497Z" fill="white"/>
<path d="M1417.97 667.892L1417.18 668.055L1416.89 668.807L1416.73 668.018L1415.97 667.729L1416.76 667.567L1417.05 666.814L1417.22 667.603L1417.97 667.892Z" fill="white"/>
<path d="M935.014 804.364L934.225 804.526L933.936 805.279L933.774 804.489L933.021 804.201L933.81 804.038L934.099 803.286L934.262 804.075L935.014 804.364Z" fill="white"/>
<path d="M575.722 563.53L574.143 563.855L573.566 565.36L573.241 563.781L571.736 563.203L573.315 562.879L573.892 561.373L574.217 562.953L575.722 563.53Z" fill="white"/>
<path d="M520.939 268.331L519.36 268.655L518.783 270.161L518.458 268.582L516.953 268.004L518.532 267.679L519.109 266.174L519.434 267.753L520.939 268.331Z" fill="white"/>
<path d="M1147.44 487.534L1145.86 487.859L1145.28 489.364L1144.95 487.785L1143.45 487.207L1145.03 486.883L1145.61 485.377L1145.93 486.956L1147.44 487.534Z" fill="white"/>
<path d="M1071.78 233.682L1070.2 234.007L1069.62 235.512L1069.29 233.933L1067.79 233.356L1069.37 233.031L1069.95 231.526L1070.27 233.105L1071.78 233.682Z" fill="white"/>
<path d="M915.505 81.6545L913.926 81.9791L913.348 83.4845L913.023 81.9052L911.518 81.3278L913.097 81.0032L913.675 79.4978L913.999 81.0771L915.505 81.6545Z" fill="white"/>
<path d="M1382.2 503.09L1380.62 503.415L1380.04 504.92L1379.71 503.341L1378.21 502.763L1379.79 502.439L1380.37 500.933L1380.69 502.513L1382.2 503.09Z" fill="white"/>
<path d="M803.782 795.832L802.203 796.157L801.625 797.662L801.301 796.083L799.795 795.506L801.375 795.181L801.952 793.676L802.277 795.255L803.782 795.832Z" fill="white"/>
<path d="M327.192 285.301L325.613 285.626L325.035 287.131L324.711 285.552L323.205 284.974L324.785 284.65L325.362 283.144L325.687 284.724L327.192 285.301Z" fill="white"/>
<path d="M80.4117 485.412L78.8325 485.737L78.2551 487.242L77.9304 485.663L76.4251 485.086L78.0043 484.761L78.5817 483.256L78.9064 484.835L80.4117 485.412Z" fill="white"/>
<path d="M267.795 142.465L266.216 142.79L265.638 144.296L265.314 142.716L263.808 142.139L265.388 141.814L265.965 140.309L266.29 141.888L267.795 142.465Z" fill="white"/>
<path d="M38.6924 356.012L37.1132 356.337L36.5358 357.842L36.2111 356.263L34.7058 355.685L36.285 355.361L36.8624 353.855L37.1871 355.434L38.6924 356.012Z" fill="white"/>
<g filter="url(#filter0_f_2_1836)">
<rect x="-184.096" y="166.507" width="407.87" height="84.4531" fill="url(#paint1_linear_2_1836)" fill-opacity="0.7"/>
</g>
<g filter="url(#filter1_f_2_1836)">
<ellipse cx="623.561" cy="428.983" rx="92.3706" ry="93.0904" transform="rotate(180 623.561 428.983)" fill="url(#paint2_linear_2_1836)" style="mix-blend-mode:color-dodge"/>
</g>
<g filter="url(#filter2_f_2_1836)">
<rect x="1173.2" y="215.922" width="470.194" height="89.9501" fill="url(#paint3_linear_2_1836)" fill-opacity="0.7"/>
</g>
<g filter="url(#filter3_f_2_1836)">
<rect x="470.975" y="881.349" width="470.194" height="89.9501" fill="#022F59" fill-opacity="0.6"/>
</g>
</g>
<defs>
<filter id="filter0_f_2_1836" x="-448.012" y="-97.4091" width="935.702" height="612.285" filterUnits="userSpaceOnUse" color-interpolation-filters="sRGB">
<feFlood flood-opacity="0" result="BackgroundImageFix"/>
<feBlend mode="normal" in="SourceGraphic" in2="BackgroundImageFix" result="shape"/>
<feGaussianBlur stdDeviation="131.958" result="effect1_foregroundBlur_2_1836"/>
</filter>
<filter id="filter1_f_2_1836" x="3.35893" y="-191.939" width="1240.4" height="1241.84" filterUnits="userSpaceOnUse" color-interpolation-filters="sRGB">
<feFlood flood-opacity="0" result="BackgroundImageFix"/>
<feBlend mode="normal" in="SourceGraphic" in2="BackgroundImageFix" result="shape"/>
<feGaussianBlur stdDeviation="263.916" result="effect1_foregroundBlur_2_1836"/>
</filter>
<filter id="filter2_f_2_1836" x="943.212" y="-14.0636" width="930.165" height="549.922" filterUnits="userSpaceOnUse" color-interpolation-filters="sRGB">
<feFlood flood-opacity="0" result="BackgroundImageFix"/>
<feBlend mode="normal" in="SourceGraphic" in2="BackgroundImageFix" result="shape"/>
<feGaussianBlur stdDeviation="114.993" result="effect1_foregroundBlur_2_1836"/>
</filter>
<filter id="filter3_f_2_1836" x="240.989" y="651.363" width="930.165" height="549.922" filterUnits="userSpaceOnUse" color-interpolation-filters="sRGB">
<feFlood flood-opacity="0" result="BackgroundImageFix"/>
<feBlend mode="normal" in="SourceGraphic" in2="BackgroundImageFix" result="shape"/>
<feGaussianBlur stdDeviation="114.993" result="effect1_foregroundBlur_2_1836"/>
</filter>
<linearGradient id="paint0_linear_2_1836" x1="-14.2579" y1="-44.8299" x2="1253.24" y2="1028.58" gradientUnits="userSpaceOnUse">
<stop stop-color="#1D2948"/>
<stop offset="0.248198" stop-color="#141D33"/>
<stop offset="0.380763" stop-color="#0F1628"/>
<stop offset="1" stop-color="#050A16"/>
</linearGradient>
<linearGradient id="paint1_linear_2_1836" x1="-172.791" y1="190.389" x2="126.613" y2="206.641" gradientUnits="userSpaceOnUse">
<stop stop-color="#052543"/>
<stop offset="1" stop-color="#013E77"/>
</linearGradient>
<linearGradient id="paint2_linear_2_1836" x1="568.379" y1="365.404" x2="922.506" y2="673.466" gradientUnits="userSpaceOnUse">
<stop stop-color="#1C2469"/>
<stop offset="0.53577" stop-color="#1C2469" stop-opacity="0"/>
<stop offset="1" stop-color="#1C2469" stop-opacity="0"/>
</linearGradient>
<linearGradient id="paint3_linear_2_1836" x1="1186.23" y1="241.359" x2="1531.21" y2="261.628" gradientUnits="userSpaceOnUse">
<stop offset="0.0001" stop-color="#052543"/>
<stop offset="0.921875" stop-color="#094285"/>
</linearGradient>
<clipPath id="clip0_2_1836">
<rect width="1440" height="1004" fill="white"/>
</clipPath>
</defs>
</svg>
