<svg width="336" height="336" viewBox="0 0 336 336" fill="none" xmlns="http://www.w3.org/2000/svg">
<circle cx="168" cy="168" r="168" fill="#E3D8CF"/>
<path fill-rule="evenodd" clip-rule="evenodd" d="M321.991 237.509C294.372 260.335 259.243 274 221 274C132.082 274 60 200.127 60 109C60 77.6917 68.5085 48.4199 83.2851 23.481C34.017 52.7652 1 106.527 1 168C1 260.784 76.2162 336 169 336C236.994 336 295.553 295.607 321.991 237.509Z" fill="#D6CBC2"/>
<circle cx="136" cy="244" r="18" fill="#D6CBC2" stroke="#E3D8CF" stroke-width="4"/>
<circle cx="64.5" cy="99.5" r="9.5" fill="#D6CBC2" stroke="#E3D8CF" stroke-width="4"/>
<circle cx="177.5" cy="25.5" r="9.5" fill="#D6CBC2" stroke="#E3D8CF" stroke-width="4"/>
<circle cx="198.5" cy="107.5" r="18.5" fill="#D6CBC2" stroke="#E3D8CF" stroke-width="4"/>
<circle cx="276.5" cy="165.5" r="37.5" fill="#D6CBC2" stroke="#E3D8CF" stroke-width="4"/>
<circle cx="180" cy="175" r="21" fill="#D6CBC2" stroke="#E3D8CF" stroke-width="4"/>
<circle cx="110" cy="69" r="15" fill="#D6CBC2" stroke="#E3D8CF" stroke-width="4"/>
<circle cx="123" cy="130" r="8" fill="#D6CBC2" stroke="#E3D8CF" stroke-width="4"/>
</svg>
