<svg width="100" height="100" viewBox="0 0 100 100" fill="none" xmlns="http://www.w3.org/2000/svg">
<g style="mix-blend-mode:screen" opacity="0.87">
<path d="M42.1401 22.5318C46.0866 22.4775 49.9354 23.7604 53.0601 26.1718C54.9234 27.4896 56.4508 29.227 57.5191 31.2437C58.5874 33.2604 59.1666 35.5 59.2101 37.7818C59.1658 40.0648 58.5863 42.3056 57.5181 44.3238C56.4499 46.342 54.923 48.0813 53.0601 49.4018C49.9355 51.8239 46.0833 53.1174 42.1301 53.0718C38.192 52.9664 34.4373 51.3852 31.6101 48.6418C30.1433 47.2236 28.9787 45.5233 28.1865 43.6432C27.3942 41.763 26.9906 39.742 27.0001 37.7018C26.9868 35.498 27.4646 33.3189 28.3986 31.3228C29.3327 29.3267 30.6996 27.5637 32.4001 26.1618C35.1484 23.8948 38.5784 22.6164 42.1401 22.5318V22.5318Z" fill="#B4CBDE"/>
</g>
<g style="mix-blend-mode:screen" opacity="0.9">
<path d="M42.3801 23.0118C46.2767 22.9688 50.0681 24.2762 53.1101 26.7118C54.8497 28.0021 56.2694 29.6752 57.2594 31.6016C58.2495 33.5279 58.7835 35.6562 58.8201 37.8218C58.7828 39.9901 58.2486 42.1209 57.2587 44.0505C56.2688 45.98 54.8496 47.6567 53.1101 48.9518C50.0616 51.3744 46.2738 52.6769 42.3801 52.6418C38.5149 52.5753 34.8178 51.05 32.0301 48.3718C30.6068 46.9944 29.4764 45.3437 28.7066 43.5189C27.9368 41.694 27.5434 39.7324 27.5501 37.7518C27.5376 35.6009 28.0062 33.4744 28.9215 31.5279C29.8367 29.5814 31.1756 27.8642 32.8401 26.5018C35.5358 24.2964 38.8976 23.0666 42.3801 23.0118V23.0118Z" fill="#BBD2E6"/>
</g>
<g style="mix-blend-mode:screen" opacity="0.94">
<path d="M42.6201 23.4818C46.4656 23.4606 50.1962 24.7915 53.1601 27.2418C54.7759 28.5083 56.0878 30.1203 56.9996 31.9596C57.9115 33.7989 58.4003 35.819 58.4301 37.8718C58.4019 39.9245 57.9128 41.9446 56.9988 43.7828C56.0849 45.621 54.7696 47.2303 53.1501 48.4918C50.1923 50.9459 46.4633 52.2775 42.6201 52.2518C38.8211 52.206 35.1832 50.7107 32.4501 48.0718C31.0723 46.7384 29.9777 45.1407 29.232 43.3743C28.4863 41.6079 28.1047 39.7091 28.1101 37.7918C28.0909 35.6868 28.5468 33.6046 29.4436 31.7001C30.3404 29.7956 31.6552 28.1179 33.2901 26.7918C35.9386 24.6693 39.2261 23.503 42.6201 23.4818V23.4818Z" fill="#C2DAEF"/>
</g>
<g style="mix-blend-mode:screen" opacity="0.97">
<path d="M42.8601 23.9618C46.6573 23.9483 50.3321 25.3046 53.2101 27.7818C54.7248 29.0001 55.947 30.5426 56.7868 32.2957C57.6266 34.0488 58.0625 35.9679 58.0625 37.9118C58.0625 39.8557 57.6266 41.7748 56.7868 43.5279C55.947 45.281 54.7248 46.8235 53.2101 48.0418C50.337 50.5206 46.6647 51.8773 42.8701 51.8618C39.144 51.8763 35.5582 50.442 32.8701 47.8618C31.5305 46.5648 30.467 45.0104 29.7435 43.2919C29.02 41.5734 28.6515 39.7263 28.6601 37.8618C28.6416 35.8145 29.0862 33.7896 29.9607 31.9384C30.8352 30.0872 32.1169 28.4577 33.7101 27.1718C36.3069 25.0935 39.534 23.9613 42.8601 23.9618Z" fill="#C8E1F7"/>
</g>
<g style="mix-blend-mode:screen">
<path d="M57.6501 37.9618C57.6383 39.7867 57.2402 41.5883 56.4818 43.2482C55.7234 44.908 54.622 46.3884 53.2501 47.5918C50.4619 50.0952 46.8472 51.4806 43.1001 51.4818C39.4412 51.5037 35.9181 50.0973 33.2801 47.5618C31.9862 46.3049 30.9596 44.7996 30.262 43.1362C29.5643 41.4728 29.2099 39.6856 29.2201 37.8818C29.2201 30.2118 35.4301 24.4318 43.1001 24.4318C46.8472 24.433 50.4619 25.8183 53.2501 28.3218C54.6227 29.5267 55.7246 31.0088 56.483 32.6703C57.2414 34.3319 57.6391 36.1353 57.6501 37.9618V37.9618Z" fill="#CFE9FF"/>
</g>
<g style="mix-blend-mode:multiply" opacity="0.69">
<path d="M45.6401 74.1918C34.1901 71.5618 25.1801 62.1918 25.1801 49.8318C25.1801 32.7718 40.5701 20.8318 57.1801 23.5518C74.1801 26.3918 84.0201 42.4818 78.8501 57.3518C74.2601 70.5818 59.6401 77.4218 45.6401 74.1918Z" fill="#8C8C8C"/>
</g>
<g style="mix-blend-mode:multiply" opacity="0.75">
<path d="M47.0801 74.2218C35.1201 72.0718 25.7101 62.5018 25.7101 49.7918C25.7101 33.3418 40.2401 21.6518 56.3301 23.8718C72.7401 26.1318 83.0401 41.1618 78.9501 55.8718C75.2201 69.2118 61.0401 76.7618 47.0801 74.2218Z" fill="#818181"/>
</g>
<g style="mix-blend-mode:multiply" opacity="0.81">
<path d="M48.5301 74.2518C36.0501 72.5818 26.1401 62.7618 26.1401 49.7418C26.1401 33.9218 39.9001 22.5218 55.4601 24.1918C71.2501 25.8818 82.0701 39.8318 79.0401 54.3018C76.2001 67.8418 62.4601 76.1218 48.5301 74.2518Z" fill="#777777"/>
</g>
<g style="mix-blend-mode:multiply" opacity="0.88">
<path d="M49.9701 74.2818C36.9901 73.1318 26.6301 63.0718 26.6301 49.7018C26.6301 34.5018 39.5701 23.4118 54.6301 24.5118C69.8101 25.6618 81.1701 38.5118 79.1701 52.7818C77.2101 66.4718 63.8901 75.5118 49.9701 74.2818Z" fill="#6C6C6C"/>
</g>
<g style="mix-blend-mode:multiply" opacity="0.94">
<path d="M51.4101 74.3018C37.9401 73.7218 27.1101 63.3018 27.1101 49.6518C27.1101 35.0718 39.2401 24.2818 53.7101 24.8318C68.1801 25.3818 80.2101 37.1518 79.2201 51.2618C78.2501 65.0718 65.3401 74.9118 51.4101 74.3018Z" fill="#626262"/>
</g>
<g style="mix-blend-mode:multiply">
<path d="M79.3101 49.7418C79.3101 63.6918 66.8001 74.3318 52.8501 74.3318C38.9001 74.3318 27.5901 63.5518 27.5901 49.6018C27.5901 35.6518 38.9001 25.1418 52.8501 25.1418C66.8001 25.1418 79.3101 35.7918 79.3101 49.7418Z" fill="#575757"/>
</g>
<path d="M80.4331 51.3297C82.9386 35.7567 72.3454 21.1012 56.7724 18.5957C41.1994 16.0901 26.5439 26.6834 24.0383 42.2564C21.5328 57.8293 32.126 72.4849 47.699 74.9904C63.272 77.496 77.9275 66.9027 80.4331 51.3297Z" fill="url(#paint0_radial_1_2)"/>
<path d="M51.9801 74.4818C67.2728 74.4818 79.6701 62.0846 79.6701 46.7918C79.6701 31.499 67.2728 19.1018 51.9801 19.1018C36.6873 19.1018 24.2901 31.499 24.2901 46.7918C24.2901 62.0846 36.6873 74.4818 51.9801 74.4818Z" fill="url(#paint1_radial_1_2)"/>
<g style="mix-blend-mode:multiply">
<path d="M31.0501 31.4018C32.2801 30.9718 35.4001 33.3118 35.1001 34.6418C34.8001 35.9718 33.9601 37.4618 35.1001 37.6418C36.2401 37.8218 38.1801 35.4218 38.1801 33.5018C38.1801 31.5818 40.8501 28.9118 42.3301 29.3518C43.8101 29.7918 43.7001 32.2818 44.8501 31.7218C46.0001 31.1618 44.5501 28.9118 46.4801 28.3218C48.4101 27.7318 55.6601 30.2518 56.2501 32.9818C56.8401 35.7118 58.0301 39.2718 56.9901 39.9818C55.9501 40.6918 59.6801 46.9818 60.9901 46.8018C64.5001 46.2718 62.6201 53.1618 60.9901 54.2018C59.3601 55.2418 53.8801 58.4918 51.9901 55.8318C50.1001 53.1718 44.8501 53.7518 47.2401 55.8318C49.6301 57.9118 53.5301 61.6818 51.9901 63.6818C49.9901 66.3118 44.8601 68.5218 43.5501 64.4218C43.0901 62.9718 35.7101 62.3318 38.7101 59.6718C41.7101 57.0118 39.1501 51.0818 37.7101 53.3018C36.2701 55.5218 32.3801 57.0018 31.7901 52.7118C31.2001 48.4218 27.8501 50.7818 26.0701 47.0718C24.2901 43.3618 27.5501 32.6318 31.0501 31.4018Z" fill="#E3D8CF"/>
</g>
<g style="mix-blend-mode:multiply">
<path d="M65.3101 36.2718C62.4901 36.1718 62.0501 32.8718 61.0201 33.2718C59.9901 33.6718 58.5001 37.2718 58.5001 39.9318C58.5001 42.5918 62.3501 44.8218 64.5701 43.4918C66.7901 42.1618 67.1301 36.3418 65.3101 36.2718Z" fill="#E3D8CF"/>
</g>
<g style="mix-blend-mode:multiply">
<path d="M73.4501 35.8318C71.9801 35.9618 70.3501 38.6418 71.6801 39.3818C73.0101 40.1218 73.9001 41.4518 74.9401 41.0118C75.9801 40.5718 76.7101 35.5318 73.4501 35.8318Z" fill="#E3D8CF"/>
</g>
<g style="mix-blend-mode:multiply">
<path d="M68.1201 41.0718C68.4401 40.1818 71.2301 40.5418 71.8301 41.7218C72.1519 42.2731 72.5848 42.7515 73.1012 43.1268C73.6176 43.502 74.2063 43.7659 74.8301 43.9018C75.5701 43.9018 78.8301 44.8318 78.8301 46.7618C78.8301 48.6918 78.2301 53.8618 77.2001 54.1618C76.1701 54.4618 72.8501 52.0918 73.5401 50.9018C74.2301 49.7118 73.5401 49.9018 73.5401 47.3918C73.5401 44.8818 71.1101 48.5418 71.2301 49.2718C71.4901 50.9518 75.3701 53.4218 73.5401 55.6418C71.7101 57.8618 67.2801 55.0518 68.1601 52.5318C69.0401 50.0118 66.5401 48.3818 64.9101 46.7618C63.2801 45.1418 67.2401 43.5618 68.1201 41.0718Z" fill="#E3D8CF"/>
</g>
<g style="mix-blend-mode:multiply">
<path d="M49.6201 25.9118C48.2701 26.0718 48.0901 28.2918 50.0101 27.7818C51.9301 27.2718 51.7101 25.6618 49.6201 25.9118Z" fill="#E3D8CF"/>
</g>
<path d="M46.7101 44.6118C47.7101 44.1118 50.8201 45.1618 48.2901 46.7918C45.7601 48.4218 44.0801 45.9418 46.7101 44.6118Z" fill="#D6CBC2"/>
<path d="M52.3601 67.7718C51.6701 68.2118 51.5201 70.1318 53.1701 69.4218C55.1801 68.5418 54.0101 66.7118 52.3601 67.7718Z" fill="#D6CBC2"/>
<g style="mix-blend-mode:multiply">
<path d="M57.7101 26.9418C57.0801 27.2618 53.7901 28.3718 55.8101 28.9418C56.7301 29.2018 60.7001 28.7418 60.3501 27.8218C60.2467 27.58 60.0933 27.3628 59.8998 27.1847C59.7064 27.0065 59.4774 26.8714 59.2279 26.7882C58.9784 26.7051 58.7142 26.6758 58.4525 26.7022C58.1909 26.7287 57.9378 26.8104 57.7101 26.9418V26.9418Z" fill="#E3D8CF"/>
</g>
<path d="M63.0001 57.0718C62.7401 56.5518 59.5201 56.9018 60.6201 58.3718C61.7201 59.8418 61.6901 58.4918 62.3001 58.7218C63.5301 59.1618 63.2001 57.4618 63.0001 57.0718Z" fill="#D6CBC2"/>
<g style="mix-blend-mode:multiply">
<path d="M42.4301 58.4318C42.4301 58.4318 41.7801 57.3318 41.2401 58.4318C40.7001 59.5318 42.7101 62.8418 43.7101 61.9518C44.7101 61.0618 44.3801 58.8818 43.7101 59.0118C43.466 59.0236 43.2226 58.9772 43.0001 58.8763C42.7775 58.7754 42.5821 58.6231 42.4301 58.4318V58.4318Z" fill="#E3D8CF"/>
</g>
<path d="M38.8601 67.3518C36.7301 67.9218 37.1301 70.4418 39.1101 69.4618C41.0901 68.4818 39.3201 67.2318 38.8601 67.3518Z" fill="#E3D8CF"/>
<g style="mix-blend-mode:multiply">
<path d="M60.9901 69.1218C59.7701 69.4418 59.9001 70.6718 60.9901 70.1218C62.0801 69.5718 61.2501 69.0718 60.9901 69.1218Z" fill="#E3D8CF"/>
</g>
<g style="mix-blend-mode:screen" opacity="0.4">
<path d="M72.2901 60.0718C69.9801 60.6818 70.5001 63.5118 72.6401 62.4418C74.7801 61.3718 72.7901 59.9018 72.2901 60.0718Z" fill="#6B6B6B"/>
</g>
<path d="M32.5501 50.8618C31.5001 50.7618 31.9901 54.9618 34.1601 54.5218C36.3301 54.0818 38.3201 52.3318 34.5101 52.3318C32.4001 52.3318 33.2701 50.9218 32.5501 50.8618Z" fill="#A8A8A8"/>
<g style="mix-blend-mode:multiply">
<path d="M36.1201 34.9018C36.1201 34.9018 34.2601 37.1618 35.8201 36.6718C37.3801 36.1818 37.3001 33.5418 36.1201 34.9018Z" fill="#E3D8CF"/>
</g>
<path d="M41.7101 30.1718C40.8001 30.4118 39.2401 31.5718 40.7101 32.1718C42.1801 32.7718 43.3001 29.7418 41.7101 30.1718Z" fill="#D1D1D1"/>
<g style="mix-blend-mode:multiply">
<path d="M67.5401 26.9718C71.4839 31.7526 73.5294 37.8182 73.286 44.0111C73.0426 50.2039 70.5274 56.0903 66.2205 60.5468C61.9136 65.0034 56.1165 67.718 49.9356 68.1726C43.7547 68.6273 37.6227 66.7902 32.7101 63.0118C34.9565 65.7885 37.767 68.0564 40.9557 69.6654C44.1444 71.2743 47.6384 72.1877 51.2066 72.345C54.7747 72.5022 58.3356 71.8998 61.6534 70.5776C64.9713 69.2554 67.9705 67.2436 70.4525 64.6753C72.9344 62.107 74.8426 59.0408 76.0507 55.6797C77.2587 52.3186 77.7391 48.7392 77.4599 45.1785C77.1808 41.6178 76.1486 38.157 74.4316 35.0252C72.7146 31.8934 70.3519 29.162 67.5001 27.0118L67.5401 26.9718Z" fill="#DBDBDB"/>
</g>
<g style="mix-blend-mode:soft-light">
<path d="M27.5601 41.0018C26.3401 48.8018 33.8201 60.6718 42.0401 60.6718C50.2601 60.6718 74.2001 51.7718 69.0401 37.4218C66.3601 30.0018 58.5201 20.5418 50.3001 20.5418C42.0801 20.5418 29.7101 27.4518 27.5601 41.0018Z" fill="#D6CBC2" fill-opacity="0.78"/>
</g>
<g style="mix-blend-mode:screen" opacity="0.3">
<path d="M45.6101 34.0118C30.5001 41.1618 29.3001 44.3818 29.8201 41.0718C31.9001 27.8718 43.9101 23.0118 46.9601 23.0118C50.0101 23.0118 68.9601 22.9618 45.6101 34.0118Z" fill="#FFF1D4"/>
</g>
<path d="M25.4301 52.1418C25.3745 52.1389 25.321 52.1194 25.2765 52.086C25.232 52.0525 25.1985 52.0065 25.1803 51.954C25.162 51.9014 25.1599 51.8445 25.1741 51.7907C25.1883 51.7369 25.2182 51.6885 25.2601 51.6518C25.4501 51.4718 25.5801 51.4418 25.7401 51.6518C25.9001 51.8618 25.7901 52.1418 25.4301 52.1418Z" fill="url(#paint2_radial_1_2)"/>
<path style="mix-blend-mode:color-dodge" opacity="0.3" d="M76.7801 59.0718C76.9801 59.2218 74.0001 63.6718 70.1301 69.0018C66.2601 74.3318 62.9601 78.5218 62.7701 78.3818C62.5801 78.2418 65.5501 73.7918 69.4201 68.4618C73.2901 63.1318 76.5901 58.9718 76.7801 59.0718Z" fill="url(#paint3_radial_1_2)"/>
<path style="mix-blend-mode:color-dodge" opacity="0.3" d="M64.7101 57.7818C64.9301 57.6818 67.3701 62.5118 70.1601 68.5818C72.9501 74.6518 75.0201 79.6518 74.8001 79.7518C74.5801 79.8518 72.1601 75.0718 69.3701 68.9518C66.5801 62.8318 64.5101 57.8818 64.7101 57.7818Z" fill="url(#paint4_radial_1_2)"/>
<path style="mix-blend-mode:color-dodge" opacity="0.3" d="M42.3701 6.00179C42.8101 6.16179 39.8201 15.7218 35.6801 27.3618C31.5401 39.0018 27.8401 48.3618 27.3901 48.1518C26.9401 47.9418 29.9501 38.4318 34.0801 26.7918C38.2101 15.1518 41.9301 5.85179 42.3701 6.00179Z" fill="url(#paint5_radial_1_2)"/>
<path style="mix-blend-mode:color-dodge" opacity="0.3" d="M15.9001 14.9618C16.1601 14.5718 24.9001 19.6818 35.3501 26.3718C45.8001 33.0618 54.1201 38.8018 53.8601 39.1918C53.6001 39.5818 44.8601 34.4718 34.4101 27.7818C23.9601 21.0918 15.6501 15.3518 15.9001 14.9618Z" fill="url(#paint6_radial_1_2)"/>
<path style="mix-blend-mode:color-dodge" opacity="0.3" d="M14.7101 37.8218C14.4901 37.4218 23.3301 32.2818 34.4501 26.3418C45.5701 20.4018 54.7501 15.9218 54.9701 16.3418C55.1901 16.7618 46.3901 21.8718 35.2801 27.8118C24.1701 33.7518 14.9701 38.2318 14.7101 37.8218Z" fill="url(#paint7_radial_1_2)"/>
<defs>
<radialGradient id="paint0_radial_1_2" cx="0" cy="0" r="1" gradientUnits="userSpaceOnUse" gradientTransform="translate(41.3389 30.227) scale(45.17 45.17)">
<stop stop-color="#F5F5F5"/>
<stop offset="1" stop-color="#F5F5F5"/>
</radialGradient>
<radialGradient id="paint1_radial_1_2" cx="0" cy="0" r="1" gradientUnits="userSpaceOnUse" gradientTransform="translate(41.4201 30.7318) scale(43.79 43.79)">
<stop stop-color="#E0E0E0"/>
<stop offset="1" stop-color="#E0E0E0"/>
</radialGradient>
<radialGradient id="paint2_radial_1_2" cx="0" cy="0" r="1" gradientUnits="userSpaceOnUse" gradientTransform="translate(25.1501 51.7818) scale(0.750001 0.749997)">
<stop stop-color="#F5F5F5"/>
<stop offset="1" stop-color="#DCE7F0"/>
</radialGradient>
<radialGradient id="paint3_radial_1_2" cx="0" cy="0" r="1" gradientUnits="userSpaceOnUse" gradientTransform="translate(120.789 418.493) rotate(-53.8068) scale(11.9693 0.424329)">
<stop stop-color="#545454"/>
<stop offset="0.13" stop-color="#3F3F3F"/>
<stop offset="0.35" stop-color="#232323"/>
<stop offset="0.56" stop-color="#101010"/>
<stop offset="0.78" stop-color="#040404"/>
<stop offset="1"/>
</radialGradient>
<radialGradient id="paint4_radial_1_2" cx="0" cy="0" r="1" gradientUnits="userSpaceOnUse" gradientTransform="translate(269.646 320.465) rotate(-114.814) scale(12.08 0.420004)">
<stop stop-color="#545454"/>
<stop offset="0.13" stop-color="#3F3F3F"/>
<stop offset="0.35" stop-color="#232323"/>
<stop offset="0.56" stop-color="#101010"/>
<stop offset="0.78" stop-color="#040404"/>
<stop offset="1"/>
</radialGradient>
<radialGradient id="paint5_radial_1_2" cx="0" cy="0" r="1" gradientUnits="userSpaceOnUse" gradientTransform="translate(197.97 -87.0434) rotate(-70.308) scale(22.4404 0.912515)">
<stop stop-color="#545454"/>
<stop offset="0.13" stop-color="#3F3F3F"/>
<stop offset="0.35" stop-color="#232323"/>
<stop offset="0.56" stop-color="#101010"/>
<stop offset="0.78" stop-color="#040404"/>
<stop offset="1"/>
</radialGradient>
<radialGradient id="paint6_radial_1_2" cx="0" cy="0" r="1" gradientUnits="userSpaceOnUse" gradientTransform="translate(-8.28181 93.9214) rotate(-147.095) scale(22.5264 0.80216)">
<stop stop-color="#545454"/>
<stop offset="0.13" stop-color="#3F3F3F"/>
<stop offset="0.35" stop-color="#232323"/>
<stop offset="0.56" stop-color="#101010"/>
<stop offset="0.78" stop-color="#040404"/>
<stop offset="1"/>
</radialGradient>
<radialGradient id="paint7_radial_1_2" cx="0" cy="0" r="1" gradientUnits="userSpaceOnUse" gradientTransform="translate(303.334 -326.604) rotate(152.19) scale(22.8916 0.798015)">
<stop stop-color="#545454"/>
<stop offset="0.13" stop-color="#3F3F3F"/>
<stop offset="0.35" stop-color="#232323"/>
<stop offset="0.56" stop-color="#101010"/>
<stop offset="0.78" stop-color="#040404"/>
<stop offset="1"/>
</radialGradient>
</defs>
</svg>
